# xmcd
#
# Track frame offsets: 
#        150
#        12279
#        23799
#        35907
#        51082
#        65293
#        86214
#        105254
#        120238
#        133994
#        148995
#        164374
#
# Disc length: 2401 seconds
#
# Revision: 0
# Processed by: cddbd v1.5.2PL0 Copyright (c) Steve Scherf et al.
# Submitted via: ExactAudioCopy v0.95b4
#
DISCID=a4095f0c
DTITLE=Quinn Sullivan - Cyclone
DYEAR=2011
DGENRE=Blues
TTITLE0=My Sweet Guitar
TTITLE1=Ten Years Down The Road
TTITLE2=Good To See You
TTITLE3=Crazy Rhythm
TTITLE4=Cyclone
TTITLE5=Buddy's Blues
TTITLE6=Summer of Love
TTITLE7=Rock and Roll On It
TTITLE8=Weekend Uniform
TTITLE9=Blues Child
TTITLE10=Me and My Guitar
TTITLE11=Peace and Harmony
EXTD=
EXTT0=
EXTT1=
EXTT2=
EXTT3=
EXTT4=
EXTT5=
EXTT6=
EXTT7=
EXTT8=
EXTT9=
EXTT10=
EXTT11=
PLAYORDER=
